<mxfile host="app.diagrams.net" modified="2023-01-18T11:17:09.546Z" agent="5.0 (Windows NT 10.0; Win64; x64) AppleWebKit/537.36 (KHTML, like Gecko) Chrome/108.0.0.0 Safari/537.36" version="20.7.4" etag="I5SFrbG9mpe6nqeaU785" type="github" pages="2">
  <diagram id="I6KOGiGYZ_rvQLXAzaR7" name="服务注册">
    <mxGraphModel dx="1481" dy="881" grid="1" gridSize="10" guides="1" tooltips="1" connect="1" arrows="1" fold="1" page="1" pageScale="1" pageWidth="827" pageHeight="1169" math="0" shadow="0">
      <root>
        <mxCell id="0" />
        <mxCell id="1" parent="0" />
      </root>
    </mxGraphModel>
  </diagram>
  <diagram id="kEoKz5z6KRrPK4yg6y_2" name="长轮询">
    <mxGraphModel dx="2086" dy="749" grid="1" gridSize="10" guides="1" tooltips="1" connect="1" arrows="1" fold="1" page="1" pageScale="1" pageWidth="827" pageHeight="1169" math="0" shadow="0">
      <root>
        <mxCell id="0" />
        <mxCell id="1" parent="0" />
        <mxCell id="x0uZ2yTAP_O0GYY5sCch-1" value="客户端" style="rounded=0;whiteSpace=wrap;html=1;fillColor=#d5e8d4;strokeColor=#82b366;" vertex="1" parent="1">
          <mxGeometry x="50" y="110" width="120" height="40" as="geometry" />
        </mxCell>
        <mxCell id="x0uZ2yTAP_O0GYY5sCch-2" value="服务端" style="rounded=0;whiteSpace=wrap;html=1;fillColor=#ffe6cc;strokeColor=#d79b00;" vertex="1" parent="1">
          <mxGeometry x="300" y="110" width="120" height="40" as="geometry" />
        </mxCell>
        <mxCell id="x0uZ2yTAP_O0GYY5sCch-3" value="" style="endArrow=none;dashed=1;html=1;dashPattern=1 3;strokeWidth=2;rounded=0;entryX=0.5;entryY=1;entryDx=0;entryDy=0;" edge="1" parent="1" target="x0uZ2yTAP_O0GYY5sCch-1">
          <mxGeometry width="50" height="50" relative="1" as="geometry">
            <mxPoint x="110" y="440" as="sourcePoint" />
            <mxPoint x="150" y="190" as="targetPoint" />
          </mxGeometry>
        </mxCell>
        <mxCell id="x0uZ2yTAP_O0GYY5sCch-4" value="" style="endArrow=none;dashed=1;html=1;dashPattern=1 3;strokeWidth=2;rounded=0;entryX=0.5;entryY=1;entryDx=0;entryDy=0;" edge="1" parent="1" target="x0uZ2yTAP_O0GYY5sCch-2">
          <mxGeometry width="50" height="50" relative="1" as="geometry">
            <mxPoint x="359.5" y="440" as="sourcePoint" />
            <mxPoint x="359.5" y="150" as="targetPoint" />
            <Array as="points">
              <mxPoint x="360" y="240" />
            </Array>
          </mxGeometry>
        </mxCell>
        <mxCell id="x0uZ2yTAP_O0GYY5sCch-5" value="" style="endArrow=classic;html=1;rounded=0;" edge="1" parent="1">
          <mxGeometry width="50" height="50" relative="1" as="geometry">
            <mxPoint x="110" y="200" as="sourcePoint" />
            <mxPoint x="360" y="200" as="targetPoint" />
          </mxGeometry>
        </mxCell>
        <mxCell id="x0uZ2yTAP_O0GYY5sCch-6" value="" style="endArrow=classic;html=1;rounded=0;" edge="1" parent="1">
          <mxGeometry width="50" height="50" relative="1" as="geometry">
            <mxPoint x="360" y="280" as="sourcePoint" />
            <mxPoint x="110" y="280" as="targetPoint" />
          </mxGeometry>
        </mxCell>
        <mxCell id="x0uZ2yTAP_O0GYY5sCch-7" value="请求" style="text;html=1;strokeColor=none;fillColor=none;align=center;verticalAlign=middle;whiteSpace=wrap;rounded=0;" vertex="1" parent="1">
          <mxGeometry x="180" y="180" width="60" height="20" as="geometry" />
        </mxCell>
        <mxCell id="x0uZ2yTAP_O0GYY5sCch-8" value="响应" style="text;html=1;strokeColor=none;fillColor=none;align=center;verticalAlign=middle;whiteSpace=wrap;rounded=0;" vertex="1" parent="1">
          <mxGeometry x="180" y="260" width="60" height="20" as="geometry" />
        </mxCell>
        <mxCell id="x0uZ2yTAP_O0GYY5sCch-10" value="" style="endArrow=classic;html=1;rounded=0;" edge="1" parent="1">
          <mxGeometry width="50" height="50" relative="1" as="geometry">
            <mxPoint x="360" y="210" as="sourcePoint" />
            <mxPoint x="360" y="260" as="targetPoint" />
            <Array as="points">
              <mxPoint x="400" y="210" />
              <mxPoint x="400" y="260" />
            </Array>
          </mxGeometry>
        </mxCell>
        <mxCell id="x0uZ2yTAP_O0GYY5sCch-11" value="请求保持，直到数据变化" style="text;html=1;strokeColor=none;fillColor=none;align=center;verticalAlign=middle;whiteSpace=wrap;rounded=0;" vertex="1" parent="1">
          <mxGeometry x="400" y="220" width="160" height="20" as="geometry" />
        </mxCell>
        <mxCell id="x0uZ2yTAP_O0GYY5sCch-13" value="" style="endArrow=classic;html=1;rounded=0;" edge="1" parent="1">
          <mxGeometry width="50" height="50" relative="1" as="geometry">
            <mxPoint x="110" y="350" as="sourcePoint" />
            <mxPoint x="360" y="350" as="targetPoint" />
          </mxGeometry>
        </mxCell>
        <mxCell id="x0uZ2yTAP_O0GYY5sCch-14" value="" style="endArrow=classic;html=1;rounded=0;" edge="1" parent="1">
          <mxGeometry width="50" height="50" relative="1" as="geometry">
            <mxPoint x="360" y="430" as="sourcePoint" />
            <mxPoint x="110" y="430" as="targetPoint" />
          </mxGeometry>
        </mxCell>
        <mxCell id="x0uZ2yTAP_O0GYY5sCch-15" value="请求" style="text;html=1;strokeColor=none;fillColor=none;align=center;verticalAlign=middle;whiteSpace=wrap;rounded=0;" vertex="1" parent="1">
          <mxGeometry x="180" y="330" width="60" height="20" as="geometry" />
        </mxCell>
        <mxCell id="x0uZ2yTAP_O0GYY5sCch-16" value="响应" style="text;html=1;strokeColor=none;fillColor=none;align=center;verticalAlign=middle;whiteSpace=wrap;rounded=0;" vertex="1" parent="1">
          <mxGeometry x="180" y="410" width="60" height="20" as="geometry" />
        </mxCell>
        <mxCell id="x0uZ2yTAP_O0GYY5sCch-17" value="" style="endArrow=classic;html=1;rounded=0;" edge="1" parent="1">
          <mxGeometry width="50" height="50" relative="1" as="geometry">
            <mxPoint x="360" y="360" as="sourcePoint" />
            <mxPoint x="360" y="410" as="targetPoint" />
            <Array as="points">
              <mxPoint x="400" y="360" />
              <mxPoint x="400" y="410" />
            </Array>
          </mxGeometry>
        </mxCell>
        <mxCell id="x0uZ2yTAP_O0GYY5sCch-18" value="请求保持，直到数据变化" style="text;html=1;strokeColor=none;fillColor=none;align=center;verticalAlign=middle;whiteSpace=wrap;rounded=0;" vertex="1" parent="1">
          <mxGeometry x="400" y="370" width="160" height="20" as="geometry" />
        </mxCell>
        <mxCell id="x0uZ2yTAP_O0GYY5sCch-19" value="&lt;b&gt;长轮询&lt;/b&gt;&lt;br&gt;&lt;br&gt;客户端发起一个请求到服务端，服务端收到请求后，并不会立刻响应给客户端，而是先把请求hold住，在hold住请求这段时间内，检查数据是否有更新，如果有则响应给客户端，否则到达一定时间后才返回" style="text;html=1;strokeColor=none;fillColor=none;align=left;verticalAlign=middle;whiteSpace=wrap;rounded=0;" vertex="1" parent="1">
          <mxGeometry x="10" y="10" width="280" height="80" as="geometry" />
        </mxCell>
        <mxCell id="x0uZ2yTAP_O0GYY5sCch-23" style="edgeStyle=none;rounded=0;orthogonalLoop=1;jettySize=auto;html=1;" edge="1" parent="1" source="x0uZ2yTAP_O0GYY5sCch-20" target="x0uZ2yTAP_O0GYY5sCch-22">
          <mxGeometry relative="1" as="geometry" />
        </mxCell>
        <mxCell id="x0uZ2yTAP_O0GYY5sCch-20" value="&lt;pre style=&quot;background-color: rgb(255, 255, 255); font-family: &amp;quot;Courier New&amp;quot;; font-size: 9pt;&quot;&gt;NacosConfigService&lt;/pre&gt;" style="rounded=0;whiteSpace=wrap;html=1;" vertex="1" parent="1">
          <mxGeometry x="90" y="565" width="150" height="40" as="geometry" />
        </mxCell>
        <mxCell id="x0uZ2yTAP_O0GYY5sCch-26" value="" style="edgeStyle=none;rounded=0;orthogonalLoop=1;jettySize=auto;html=1;" edge="1" parent="1" source="x0uZ2yTAP_O0GYY5sCch-22" target="x0uZ2yTAP_O0GYY5sCch-25">
          <mxGeometry relative="1" as="geometry" />
        </mxCell>
        <mxCell id="x0uZ2yTAP_O0GYY5sCch-22" value="&lt;pre style=&quot;background-color: rgb(255, 255, 255); font-family: &amp;quot;Courier New&amp;quot;; font-size: 9pt;&quot;&gt;&lt;pre style=&quot;font-family: &amp;quot;Courier New&amp;quot;; font-size: 9pt;&quot;&gt;&lt;span style=&quot;color:#000080;font-weight:bold;&quot;&gt;new &lt;/span&gt;ClientWorker&lt;/pre&gt;&lt;/pre&gt;" style="rounded=0;whiteSpace=wrap;html=1;" vertex="1" parent="1">
          <mxGeometry x="90" y="670" width="150" height="40" as="geometry" />
        </mxCell>
        <mxCell id="x0uZ2yTAP_O0GYY5sCch-24" value="初始化ClientWorker,用于长轮询获取配置变化&lt;br&gt;com.alibaba.nacos.client.config.NacosConfigService#NacosConfigService&lt;br&gt;创建一个核心线程数为1的Scheduled线程池，一个长轮询线程池" style="text;html=1;strokeColor=none;fillColor=none;align=center;verticalAlign=middle;whiteSpace=wrap;rounded=0;" vertex="1" parent="1">
          <mxGeometry x="-270" y="620" width="450" height="30" as="geometry" />
        </mxCell>
        <mxCell id="x0uZ2yTAP_O0GYY5sCch-29" style="edgeStyle=none;rounded=0;orthogonalLoop=1;jettySize=auto;html=1;entryX=0.5;entryY=0;entryDx=0;entryDy=0;" edge="1" parent="1" source="x0uZ2yTAP_O0GYY5sCch-25" target="x0uZ2yTAP_O0GYY5sCch-28">
          <mxGeometry relative="1" as="geometry" />
        </mxCell>
        <mxCell id="x0uZ2yTAP_O0GYY5sCch-25" value="&lt;pre style=&quot;background-color: rgb(255, 255, 255); font-family: &amp;quot;Courier New&amp;quot;; font-size: 9pt;&quot;&gt;&lt;pre style=&quot;font-family: &amp;quot;Courier New&amp;quot;; font-size: 9pt;&quot;&gt;&lt;font color=&quot;#000080&quot;&gt;&lt;b&gt;checkConfigInfo&lt;/b&gt;&lt;/font&gt;&lt;/pre&gt;&lt;/pre&gt;" style="rounded=0;whiteSpace=wrap;html=1;" vertex="1" parent="1">
          <mxGeometry x="90" y="770" width="150" height="40" as="geometry" />
        </mxCell>
        <mxCell id="x0uZ2yTAP_O0GYY5sCch-27" value="构造函数，执行worker线程，检查配置，10秒延迟" style="text;html=1;strokeColor=none;fillColor=none;align=center;verticalAlign=middle;whiteSpace=wrap;rounded=0;" vertex="1" parent="1">
          <mxGeometry x="170" y="720" width="160" height="30" as="geometry" />
        </mxCell>
        <mxCell id="x0uZ2yTAP_O0GYY5sCch-32" style="edgeStyle=none;rounded=0;orthogonalLoop=1;jettySize=auto;html=1;fontSize=10;" edge="1" parent="1" source="x0uZ2yTAP_O0GYY5sCch-28" target="x0uZ2yTAP_O0GYY5sCch-31">
          <mxGeometry relative="1" as="geometry" />
        </mxCell>
        <mxCell id="x0uZ2yTAP_O0GYY5sCch-28" value="&lt;pre style=&quot;background-color: rgb(255, 255, 255); font-family: &amp;quot;Courier New&amp;quot;; font-size: 9pt;&quot;&gt;&lt;pre style=&quot;font-family: &amp;quot;Courier New&amp;quot;; font-size: 9pt;&quot;&gt;&lt;font color=&quot;#000080&quot;&gt;&lt;b&gt;cacheMap配置数量&lt;/b&gt;&lt;/font&gt;&lt;/pre&gt;&lt;/pre&gt;" style="rounded=0;whiteSpace=wrap;html=1;" vertex="1" parent="1">
          <mxGeometry x="90" y="860" width="150" height="40" as="geometry" />
        </mxCell>
        <mxCell id="x0uZ2yTAP_O0GYY5sCch-30" value="&lt;pre style=&quot;border-color: var(--border-color); font-size: 9pt; font-family: &amp;quot;Courier New&amp;quot;;&quot;&gt;&lt;font style=&quot;border-color: var(--border-color);&quot; color=&quot;#000080&quot;&gt;&lt;b style=&quot;border-color: var(--border-color);&quot;&gt;cacheMap： &lt;/b&gt;&lt;/font&gt;&lt;/pre&gt;&lt;pre style=&quot;border-color: var(--border-color); font-size: 9pt; font-family: &amp;quot;Courier New&amp;quot;;&quot;&gt;&lt;font style=&quot;border-color: var(--border-color);&quot; color=&quot;#000080&quot;&gt;&lt;b style=&quot;border-color: var(--border-color);&quot;&gt;groupKey -&amp;gt; cacheData&lt;/b&gt;&lt;/font&gt;&lt;/pre&gt;" style="text;html=1;strokeColor=none;fillColor=none;align=left;verticalAlign=middle;whiteSpace=wrap;rounded=0;" vertex="1" parent="1">
          <mxGeometry x="-90" y="850" width="160" height="50" as="geometry" />
        </mxCell>
        <mxCell id="x0uZ2yTAP_O0GYY5sCch-31" value="&lt;pre style=&quot;background-color: rgb(255, 255, 255); font-family: &amp;quot;Courier New&amp;quot;; font-size: 10px;&quot;&gt;&lt;pre style=&quot;font-family: &amp;quot;Courier New&amp;quot;; font-size: 10px;&quot;&gt;&lt;font style=&quot;font-size: 10px;&quot; color=&quot;#000080&quot;&gt;&lt;b style=&quot;font-size: 10px;&quot;&gt;创建长轮询任务，&lt;/b&gt;&lt;/font&gt;&lt;/pre&gt;&lt;pre style=&quot;font-family: &amp;quot;Courier New&amp;quot;; font-size: 10px;&quot;&gt;&lt;font style=&quot;font-size: 10px;&quot; color=&quot;#000080&quot;&gt;&lt;b style=&quot;font-size: 10px;&quot;&gt;提交到长轮询线程池&lt;/b&gt;&lt;/font&gt;&lt;/pre&gt;&lt;/pre&gt;" style="rounded=0;whiteSpace=wrap;html=1;" vertex="1" parent="1">
          <mxGeometry x="90" y="950" width="150" height="40" as="geometry" />
        </mxCell>
        <mxCell id="x0uZ2yTAP_O0GYY5sCch-33" value="&lt;pre style=&quot;background-color: rgb(255, 255, 255); font-family: &amp;quot;Courier New&amp;quot;; font-size: 9pt;&quot;&gt;任务封装成为:&lt;/pre&gt;&lt;pre style=&quot;background-color: rgb(255, 255, 255); font-family: &amp;quot;Courier New&amp;quot;; font-size: 9pt;&quot;&gt;LongPollingRunnable&lt;/pre&gt;" style="text;html=1;strokeColor=none;fillColor=none;align=left;verticalAlign=middle;whiteSpace=wrap;rounded=0;fontSize=10;" vertex="1" parent="1">
          <mxGeometry x="-80" y="950" width="140" height="40" as="geometry" />
        </mxCell>
      </root>
    </mxGraphModel>
  </diagram>
</mxfile>
